<svg width="40" height="44" viewBox="0 0 37 41" fill="none" xmlns="http://www.w3.org/2000/svg">
<path d="M32.5002 14.0857C31.2352 14.854 30.1873 15.9281 29.4548 17.2074C28.7222 18.4868 28.3288 19.9296 28.3114 21.4009C28.3164 23.0568 28.811 24.6749 29.7338 26.0547C30.6567 27.4345 31.9674 28.5155 33.5034 29.1637C32.8978 31.1021 32.0015 32.9389 30.8446 34.6126C29.1893 36.9764 27.4585 39.34 24.8249 39.34C22.1914 39.34 21.5141 37.8222 18.4791 37.8222C15.5194 37.8222 14.4659 39.3898 12.0579 39.3898C9.65 39.3898 7.96967 37.2002 6.03823 34.5131C3.48694 30.7488 2.08478 26.3341 2 21.7989C2 14.3346 6.89114 10.3786 11.7068 10.3786C14.2653 10.3786 16.3973 12.0454 18.0026 12.0454C19.5326 12.0454 21.9155 10.2789 24.8249 10.2789C26.3208 10.2406 27.8033 10.5678 29.1417 11.2316C30.4802 11.8955 31.6335 12.8756 32.5002 14.0857ZM23.4455 7.11909C24.728 5.62247 25.454 3.73462 25.5023 1.77091C25.5044 1.51203 25.4792 1.25365 25.427 1C23.2239 1.21348 21.1867 2.25508 19.7332 3.91114C18.4383 5.34813 17.6849 7.18556 17.6011 9.11117C17.6021 9.34535 17.6273 9.57881 17.6764 9.80788C17.8501 9.84044 18.0264 9.85714 18.2032 9.85774C19.2185 9.7776 20.2068 9.4935 21.108 9.0227C22.0092 8.5519 22.8045 7.90425 23.4455 7.11909Z" fill="black"/>
</svg>
